<?xml version="1.0" encoding="UTF-8" standalone="no"?>
<!DOCTYPE svg PUBLIC "-//W3C//DTD SVG 1.1//EN" "http://www.w3.org/Graphics/SVG/1.1/DTD/svg11.dtd">
<svg width="100%" height="100%" viewBox="0 0 800 600" version="1.1" xmlns="http://www.w3.org/2000/svg" xmlns:xlink="http://www.w3.org/1999/xlink" xml:space="preserve" xmlns:serif="http://www.serif.com/" style="fill-rule:evenodd;clip-rule:evenodd;stroke-linejoin:round;stroke-miterlimit:2;">
    <g transform="matrix(1,0,0,1,32.6521,-72.2398)">
        <circle cx="367.348" cy="372.624" r="300.385" style="fill:white;"/>
    </g>
    <g transform="matrix(1.55809,0,0,1.55809,137.163,201.056)">
        <g>
            <path d="M27.619,62.757C27.72,65.188 27.82,66.963 27.82,68.194C27.82,73.56 25.966,76.135 20.804,76.135C15.793,76.135 12.837,73.449 12.837,68.594C12.837,63.518 15.743,60.656 20.354,60.656C22.859,60.657 25.314,61.38 27.619,62.757ZM31.578,49.854C30.175,50.18 28.77,50.434 27.369,50.617C27.619,53.227 27.768,56.669 27.768,60.982C25.114,59.46 22.558,58.734 19.903,58.734C13.89,58.734 9.381,62.504 9.381,68.303C9.381,74.395 13.74,77.982 20.054,77.982C23.309,77.982 26.117,77.003 28.17,75.121L29.423,77.439L31.878,77.365C31.027,74.684 31.027,71.059 31.027,66.419C31.027,61.742 31.225,56.271 31.578,49.854Z" style="fill:rgb(68,37,128);fill-rule:nonzero;"/>
            <path d="M53.374,66.528L40.096,66.528C40.447,62.722 42.902,60.657 46.809,60.657C51.068,60.657 53.273,62.648 53.374,66.528ZM56.881,68.377L56.881,67.834C56.881,61.996 53.023,58.663 46.91,58.663C40.597,58.663 36.337,62.215 36.337,68.194C36.337,74.465 40.446,77.766 48.112,77.766C50.417,77.766 52.672,77.404 55.077,76.713L55.277,74.684C53.022,75.409 50.717,75.772 48.512,75.772C42.801,75.772 40.044,73.342 39.945,68.377L56.881,68.377Z" style="fill:rgb(68,37,128);fill-rule:nonzero;"/>
            <path d="M80.335,71.495C80.335,70.552 80.276,68.065 80.276,64.079C81.224,64.034 82.172,63.993 83.002,63.993C88.69,63.993 91.357,65.065 91.357,67.722C91.357,70.336 88.334,71.535 82.231,71.535C81.64,71.536 80.987,71.536 80.335,71.495ZM68.129,77.365L77.788,77.365C86.438,77.365 93.015,77.28 98.171,74.622C101.134,73.079 102.792,70.723 102.792,68.023C102.792,63.993 99.178,61.719 92.008,61.206C97.933,59.878 100.956,57.392 100.956,54.262C100.956,49.075 94.675,47.148 81.876,47.148C80.158,47.148 78.084,47.19 75.714,47.19L68.307,47.19C69.018,52.55 69.374,57.52 69.374,62.151C69.374,67.379 68.959,72.436 68.129,77.365ZM80.276,59.362C80.276,56.79 80.276,54.604 80.393,52.89C81.402,52.849 82.409,52.849 83.475,52.849C87.86,52.849 90.053,53.79 90.053,55.849C90.053,58.161 87.209,59.362 81.461,59.362L80.276,59.362Z" style="fill:rgb(68,37,128);fill-rule:nonzero;"/>
            <path d="M123.116,67.294C123.176,68.837 123.234,70.379 123.353,71.922C121.634,72.78 119.797,73.164 118.257,73.164C116.242,73.164 115.115,72.35 115.115,70.893C115.116,68.708 117.902,67.379 123.116,67.294ZM136.685,73.551L136.211,73.551C133.012,73.551 132.716,71.878 132.716,67.979C132.716,66.908 132.775,65.536 132.775,63.949C132.775,57.563 129.22,54.734 120.036,54.734C116.48,54.734 112.155,55.419 107.593,56.92L107,62.15C110.97,60.991 114.348,60.306 117.31,60.306C121.043,60.306 123.058,61.507 123.058,63.607L123.058,63.993C110.435,64.336 104.392,66.822 104.392,72.223C104.392,75.781 107.415,77.967 112.629,77.967C116.658,77.967 120.154,76.896 124.007,74.795C124.717,76.938 126.376,77.837 129.516,77.837C131.709,77.837 134.079,77.494 136.685,76.852L136.685,73.551Z" style="fill:rgb(68,37,128);fill-rule:nonzero;"/>
            <path d="M158.667,60.563C156.416,60.176 154.639,59.964 153.335,59.964C150.136,59.964 148.536,60.649 148.536,61.849C148.536,62.793 150.195,63.35 152.92,64.421C157.305,66.179 159.675,67.551 159.675,70.551C159.675,74.967 154.639,77.71 145.454,77.71C143.084,77.71 140.951,77.539 138.996,77.152L137.809,71.621C140.833,72.223 143.439,72.48 145.454,72.48C148.12,72.48 149.483,71.836 149.483,70.765C149.483,69.48 147.409,69.007 144.268,67.806C140.299,66.263 138.285,64.892 138.285,62.063C138.285,57.732 143.084,54.859 151.498,54.859C153.632,54.859 155.765,55.032 157.897,55.417L158.667,60.563Z" style="fill:rgb(68,37,128);fill-rule:nonzero;"/>
            <path d="M185.568,61.507C183.85,60.819 182.131,60.477 180.295,60.477C175.141,60.477 172.06,62.707 172.06,66.264C172.06,69.692 174.786,71.707 179.347,71.707C181.42,71.707 183.734,71.279 186.161,70.506L185.628,76.294C182.31,77.494 179.111,78.053 175.792,78.053C167.201,78.053 161.572,73.637 161.572,67.078C161.572,59.361 167.85,54.733 178.459,54.733C180.474,54.733 182.43,54.948 184.444,55.332L185.568,61.507Z" style="fill:rgb(68,37,128);fill-rule:nonzero;"/>
            <path d="M197.598,77.751C195.049,77.751 192.916,77.107 191.435,75.908C189.302,74.152 189.183,71.751 189.183,68.279L189.183,66.777C189.183,62.405 188.829,58.762 188.176,55.934L199.613,55.034C199.315,61.335 199.257,64.979 199.257,65.878C199.257,69.777 200.324,71.494 204.413,71.494C205.953,71.494 207.552,71.193 209.39,70.551L209.39,67.033C209.39,62.662 209.154,58.975 208.443,55.848L219.522,54.948C219.405,58.677 219.346,61.462 219.346,63.349C219.346,68.234 219.463,72.866 220.647,77.364C219.582,77.323 218.455,77.323 217.39,77.323C215.552,77.323 213.656,77.364 211.819,77.539L210.16,74.408C205.064,76.594 201.034,77.751 197.598,77.751Z" style="fill:rgb(68,37,128);fill-rule:nonzero;"/>
            <path d="M235.164,62.321C235.164,68.065 235.4,73.124 235.993,77.365L224.084,77.365C224.736,73.21 225.091,67.849 225.091,61.422C225.091,55.719 224.676,50.747 223.61,46.375C227.699,46.119 231.728,45.604 235.699,44.833C235.224,49.932 235.164,55.763 235.164,62.321Z" style="fill:rgb(68,37,128);fill-rule:nonzero;"/>
            <path d="M259.695,64.034L249.207,64.034C249.444,61.079 251.34,59.534 254.658,59.534C257.857,59.534 259.755,60.95 259.755,63.478C259.755,63.649 259.695,63.822 259.695,64.034ZM269.116,67.763C269.176,67.205 269.176,66.651 269.176,66.094C269.176,58.763 263.961,54.734 254.658,54.734C245.238,54.734 239.014,59.492 239.014,66.692C239.014,73.852 244.822,78.053 255.309,78.053C258.984,78.053 262.657,77.365 266.626,76.037L267.219,70.937C263.604,71.836 260.347,72.308 257.205,72.308C252.169,72.308 249.385,70.721 249.147,67.762L269.116,67.762L269.116,67.763Z" style="fill:rgb(68,37,128);fill-rule:nonzero;"/>
            <g>
                <g>
                    <path d="M337.371,28.496C336.161,13.897 253.513,8.808 152.76,17.127C88.161,22.46 31.807,32.012 0,42.026C32.064,35.071 74.957,28.9 122.276,24.991C223.028,16.675 305.68,21.764 306.886,36.363C307.317,41.602 297.204,47.351 279.403,52.955C315.612,45.1 338.008,36.239 337.371,28.496Z" style="fill:rgb(0,148,194);fill-rule:nonzero;"/>
                </g>
                <g>
                    <path d="M153.377,7.684C152.776,0.386 111.447,-2.163 61.073,1.997C45.197,3.307 30.32,5.133 17.404,7.236C22.326,6.711 27.387,6.23 32.554,5.802C82.93,1.643 124.258,4.189 124.86,11.487C125.27,16.487 106.474,22.419 78.405,26.997C121.475,22.389 153.919,14.233 153.377,7.684Z" style="fill:rgb(0,148,194);fill-rule:nonzero;"/>
                </g>
            </g>
        </g>
        <path d="M74.242,99.346C74.659,100.638 75.036,101.93 75.386,103.235L72.964,103.235C73.367,101.903 73.784,100.612 74.242,99.346ZM73.005,97.705C72.533,99.952 71.443,103.114 69.776,107.218L71.956,107.218C72.131,106.318 72.346,105.456 72.602,104.648L75.738,104.648C75.993,105.47 76.222,106.318 76.41,107.218L78.778,107.218C77.473,104.016 76.37,100.855 75.549,97.718C75.159,97.732 74.782,97.732 74.392,97.732C73.932,97.731 73.461,97.731 73.005,97.705Z" style="fill:rgb(68,37,128);fill-rule:nonzero;"/>
        <path d="M84.348,101.875C83.945,101.687 83.5,101.594 83.042,101.594C81.805,101.594 81.038,102.453 81.038,103.787C81.038,105.132 81.723,105.898 82.8,105.898C83.365,105.898 83.917,105.764 84.495,105.507L84.375,106.92C83.755,107.243 83.11,107.392 82.383,107.392C80.499,107.392 79.248,106.074 79.248,104.001C79.248,101.659 80.62,100.206 82.988,100.206C83.378,100.206 83.755,100.272 84.159,100.38L84.348,101.875Z" style="fill:rgb(68,37,128);fill-rule:nonzero;"/>
        <path d="M89.555,105.563C89.057,105.913 88.533,106.088 87.994,106.088C87.442,106.088 87.119,105.777 87.119,105.307C87.119,104.459 87.927,104.002 89.5,103.988C89.5,104.688 89.515,105.213 89.555,105.563ZM89.662,106.411C89.809,107.015 90.2,107.325 90.819,107.325C91.263,107.325 91.68,107.259 92.098,107.11L92.125,106.317L92.003,106.317C91.182,106.317 91.156,105.671 91.156,104.231L91.156,103.598C91.156,102.306 91.061,101.445 90.321,100.827C89.837,100.423 89.231,100.248 88.451,100.248C87.617,100.248 86.756,100.423 85.975,100.772L85.922,102.104C86.622,101.754 87.307,101.594 87.953,101.594C88.962,101.594 89.474,102.023 89.474,102.858L89.474,103.034C86.688,103.114 85.275,103.975 85.275,105.55C85.275,106.706 85.948,107.379 87.145,107.379C88.021,107.378 88.802,107.042 89.662,106.411Z" style="fill:rgb(68,37,128);fill-rule:nonzero;"/>
        <path d="M97.83,102.09C97.87,102.684 97.885,103.127 97.885,103.436C97.885,105.159 97.387,106.02 96.336,106.02C95.3,106.02 94.641,105.172 94.641,103.679C94.641,102.387 95.341,101.578 96.309,101.578C96.807,101.579 97.318,101.741 97.83,102.09ZM99.701,97.005C99.013,97.179 98.342,97.287 97.669,97.342C97.749,98.39 97.803,99.561 97.844,100.854C97.171,100.463 96.552,100.26 95.892,100.26C94.061,100.26 92.798,101.633 92.798,103.787C92.798,106.019 94.062,107.433 95.745,107.433C96.619,107.433 97.399,107.029 98.072,106.222L98.434,107.231L99.902,107.217C99.633,105.844 99.565,104.297 99.565,102.561C99.565,100.772 99.606,98.928 99.701,97.005Z" style="fill:rgb(68,37,128);fill-rule:nonzero;"/>
        <path d="M105.716,103.06L102.863,103.06C102.917,101.983 103.481,101.378 104.369,101.378C105.218,101.378 105.716,101.956 105.716,102.979L105.716,103.06ZM107.384,104.11C107.398,103.962 107.398,103.827 107.398,103.693C107.398,101.445 106.268,100.181 104.384,100.181C102.391,100.181 101.073,101.608 101.073,103.895C101.073,106.088 102.35,107.407 104.491,107.407C105.285,107.407 106.079,107.231 106.859,106.868L106.954,105.537C106.173,105.86 105.5,106.007 104.921,106.007C103.589,106.007 102.863,105.348 102.848,104.111L107.384,104.111L107.384,104.11Z" style="fill:rgb(68,37,128);fill-rule:nonzero;"/>
        <path d="M117.396,100.181C118.405,100.181 119.064,100.854 119.159,102.023C119.253,103.086 119.105,104.836 119.388,107.217L117.343,107.217C117.423,105.967 117.463,104.728 117.463,103.517C117.463,102.28 117.181,101.702 116.307,101.702C115.916,101.702 115.432,101.837 114.88,102.091C114.92,104.124 114.92,105.832 115.068,107.218L113.062,107.218C113.144,105.913 113.184,104.771 113.184,103.773C113.184,102.362 113.009,101.703 111.987,101.703C111.569,101.703 111.112,101.824 110.628,102.078L110.628,102.953C110.628,104.406 110.682,105.833 110.789,107.219L108.744,107.219C108.865,105.901 108.932,104.717 108.932,103.668C108.932,102.227 108.865,101.123 108.744,100.356C109.228,100.356 109.725,100.316 110.21,100.235L110.533,101.216C111.624,100.544 112.471,100.182 113.144,100.182C113.884,100.182 114.435,100.558 114.732,101.257C115.861,100.543 116.749,100.181 117.396,100.181Z" style="fill:rgb(68,37,128);fill-rule:nonzero;"/>
        <path d="M123.021,98.094C123.021,98.713 122.496,99.293 121.795,99.293C121.271,99.293 120.893,98.861 120.893,98.27C120.893,97.624 121.378,97.139 122.051,97.139C122.669,97.139 123.021,97.489 123.021,98.094ZM122.777,103.504C122.777,104.728 122.818,105.951 122.912,107.178L120.893,107.178C121.001,105.939 121.056,104.77 121.056,103.705C121.056,102.4 120.988,101.297 120.827,100.354C121.486,100.354 122.173,100.3 122.899,100.207C122.818,101.109 122.777,102.211 122.777,103.504Z" style="fill:rgb(68,37,128);fill-rule:nonzero;"/>
        <path d="M128.631,101.633C128.146,101.487 127.716,101.404 127.325,101.404C126.558,101.404 126.127,101.701 126.127,102.117C126.127,102.589 126.612,102.818 127.379,103.275C128.307,103.826 128.819,104.203 128.819,105.119C128.819,106.41 127.743,107.338 125.939,107.338C125.508,107.338 125.051,107.285 124.54,107.164L124.244,105.791C124.782,105.967 125.321,106.06 125.805,106.06C126.585,106.06 127.03,105.723 127.03,105.347C127.03,104.89 126.626,104.688 125.954,104.258C124.999,103.651 124.433,103.248 124.433,102.32C124.433,101.135 125.482,100.181 127.192,100.181C127.608,100.181 128.053,100.26 128.497,100.381L128.631,101.633Z" style="fill:rgb(68,37,128);fill-rule:nonzero;"/>
        <path d="M135.009,101.875C134.605,101.687 134.161,101.594 133.704,101.594C132.466,101.594 131.698,102.453 131.698,103.787C131.698,105.132 132.385,105.898 133.461,105.898C134.026,105.898 134.578,105.764 135.156,105.507L135.036,106.92C134.417,107.243 133.77,107.392 133.044,107.392C131.16,107.392 129.909,106.074 129.909,104.001C129.909,101.659 131.282,100.206 133.65,100.206C134.04,100.206 134.417,100.272 134.82,100.38L135.009,101.875Z" style="fill:rgb(68,37,128);fill-rule:nonzero;"/>
        <path d="M136.448,101.957C136.448,100.087 136.341,98.566 136.166,97.409C136.851,97.313 137.525,97.193 138.198,97.006C138.184,98.122 138.17,99.157 138.17,100.114L138.17,101.122C139.234,100.489 140.081,100.182 140.714,100.182C141.709,100.182 142.383,100.841 142.49,102.011C142.584,103.061 142.436,104.81 142.719,107.218L140.659,107.218C140.739,105.952 140.793,104.716 140.793,103.505C140.793,102.254 140.511,101.716 139.569,101.716C139.273,101.716 138.802,101.837 138.156,102.118C138.142,102.482 138.142,102.845 138.142,103.221C138.142,104.488 138.197,105.832 138.277,107.218L136.232,107.218C136.367,105.442 136.448,103.693 136.448,101.957Z" style="fill:rgb(68,37,128);fill-rule:nonzero;"/>
        <path d="M153.107,101.875C152.703,101.687 152.258,101.594 151.801,101.594C150.563,101.594 149.796,102.453 149.796,103.787C149.796,105.132 150.483,105.898 151.558,105.898C152.124,105.898 152.676,105.764 153.254,105.507L153.133,106.92C152.514,107.243 151.868,107.392 151.141,107.392C149.258,107.392 148.006,106.074 148.006,104.001C148.006,101.659 149.379,100.206 151.747,100.206C152.138,100.206 152.514,100.272 152.917,100.38L153.107,101.875Z" style="fill:rgb(68,37,128);fill-rule:nonzero;"/>
        <path d="M158.799,103.06L155.946,103.06C156,101.983 156.565,101.378 157.453,101.378C158.301,101.378 158.799,101.956 158.799,102.979L158.799,103.06ZM160.467,104.11C160.48,103.962 160.48,103.827 160.48,103.693C160.48,101.445 159.351,100.181 157.467,100.181C155.475,100.181 154.156,101.608 154.156,103.895C154.156,106.088 155.434,107.407 157.574,107.407C158.368,107.407 159.162,107.231 159.942,106.868L160.036,105.537C159.256,105.86 158.584,106.007 158.005,106.007C156.673,106.007 155.946,105.348 155.932,104.111L160.467,104.111L160.467,104.11Z" style="fill:rgb(68,37,128);fill-rule:nonzero;"/>
        <path d="M166.28,107.217C166.361,105.939 166.427,104.715 166.427,103.504C166.427,102.266 166.145,101.715 165.243,101.715C164.84,101.715 164.342,101.836 163.736,102.117L163.736,102.831C163.736,104.512 163.776,105.98 163.884,107.217L161.824,107.217C161.945,105.899 162.012,104.715 162.012,103.666C162.012,102.225 161.945,101.121 161.824,100.354C162.307,100.354 162.806,100.314 163.291,100.233L163.614,101.214C164.691,100.556 165.552,100.193 166.305,100.193C167.731,100.193 168.162,101.121 168.162,103.086L168.162,104.094C168.162,105.186 168.229,106.222 168.35,107.217L166.28,107.217Z" style="fill:rgb(68,37,128);fill-rule:nonzero;"/>
        <path d="M170.868,98.592C171.34,98.539 171.797,98.445 172.281,98.27C172.214,98.916 172.16,99.629 172.106,100.397L173.854,100.397L173.545,101.633L172.078,101.633C172.038,102.655 172.012,103.383 172.012,103.814C172.012,105.401 172.227,106.02 173.37,106.02C173.572,106.02 173.774,105.993 173.974,105.952L173.693,107.218C173.262,107.3 172.873,107.339 172.523,107.339C170.894,107.339 170.249,106.478 170.249,104.581C170.249,104.15 170.276,103.168 170.315,101.634L169.159,101.634L169.224,100.813L170.41,100.33L170.868,98.592Z" style="fill:rgb(68,37,128);fill-rule:nonzero;"/>
        <path d="M178.66,100.289C178.861,100.289 179.091,100.343 179.332,100.436L179.05,102.131C178.808,101.969 178.566,101.889 178.31,101.889C177.409,101.889 176.898,102.656 176.898,104.162C176.898,104.769 176.937,105.791 177.044,107.217L174.986,107.217C175.107,105.899 175.174,104.715 175.174,103.666C175.174,102.225 175.107,101.121 174.986,100.354L175.133,100.354C175.564,100.354 175.968,100.3 176.344,100.233L176.721,101.808C177.327,100.799 177.974,100.289 178.66,100.289Z" style="fill:rgb(68,37,128);fill-rule:nonzero;"/>
        <path d="M184.675,106.397C183.53,107.071 182.615,107.407 181.929,107.407C180.718,107.407 180.154,106.627 180.099,105.052C180.086,104.783 180.086,104.488 180.086,104.177L180.086,103.747C180.086,102.805 180.072,101.716 179.898,100.489C180.557,100.423 181.23,100.355 181.917,100.274C181.863,101.526 181.822,102.777 181.822,104.055C181.822,105.321 182.092,105.872 183.073,105.872C183.424,105.872 183.962,105.752 184.553,105.455L184.553,104.822C184.553,102.642 184.473,101.189 184.337,100.488C184.997,100.422 185.657,100.354 186.316,100.273C186.262,101.578 186.235,102.628 186.235,103.449C186.235,104.795 186.329,106.047 186.531,107.217L184.997,107.217L184.675,106.397Z" style="fill:rgb(68,37,128);fill-rule:nonzero;"/>
        <path d="M196.597,100.181C197.605,100.181 198.265,100.854 198.36,102.023C198.454,103.086 198.305,104.836 198.588,107.217L196.543,107.217C196.624,105.967 196.664,104.728 196.664,103.517C196.664,102.28 196.382,101.702 195.508,101.702C195.117,101.702 194.633,101.837 194.081,102.091C194.121,104.124 194.121,105.832 194.269,107.218L192.263,107.218C192.344,105.913 192.385,104.771 192.385,103.773C192.385,102.362 192.209,101.703 191.187,101.703C190.769,101.703 190.312,101.824 189.829,102.078L189.829,102.953C189.829,104.406 189.883,105.833 189.99,107.219L187.944,107.219C188.066,105.901 188.133,104.717 188.133,103.668C188.133,102.227 188.066,101.123 187.944,100.356C188.429,100.356 188.926,100.316 189.411,100.235L189.734,101.216C190.824,100.544 191.672,100.182 192.344,100.182C193.084,100.182 193.636,100.558 193.932,101.257C195.062,100.543 195.95,100.181 196.597,100.181Z" style="fill:rgb(68,37,128);fill-rule:nonzero;"/>
        <path d="M73.287,121.88C74.148,120.076 74.552,118.476 74.713,117.131L76.704,116.847C76.193,118.92 75.265,121.247 73.959,123.871L72.345,123.871C71.565,121.475 70.65,119.228 69.586,117.131L71.672,116.847C72.076,118.624 72.614,120.307 73.287,121.88Z" style="fill:rgb(68,37,128);fill-rule:nonzero;"/>
        <path d="M80.755,118.179C81.859,118.179 82.437,118.933 82.437,120.414C82.437,121.893 81.845,122.646 80.755,122.646C79.679,122.646 79.086,121.879 79.086,120.414C79.086,118.947 79.679,118.179 80.755,118.179ZM80.755,116.794C78.642,116.794 77.257,118.22 77.257,120.426C77.257,122.633 78.642,124.047 80.755,124.047C82.881,124.047 84.253,122.633 84.253,120.426C84.253,118.22 82.867,116.794 80.755,116.794Z" style="fill:rgb(68,37,128);fill-rule:nonzero;"/>
        <path d="M88.733,118.179C89.837,118.179 90.416,118.933 90.416,120.414C90.416,121.893 89.824,122.646 88.733,122.646C87.658,122.646 87.065,121.879 87.065,120.414C87.065,118.947 87.658,118.179 88.733,118.179ZM88.733,116.794C86.622,116.794 85.235,118.22 85.235,120.426C85.235,122.633 86.622,124.047 88.733,124.047C90.86,124.047 92.232,122.633 92.232,120.426C92.232,118.22 90.847,116.794 88.733,116.794Z" style="fill:rgb(68,37,128);fill-rule:nonzero;"/>
        <path d="M97.157,116.903C97.359,116.903 97.587,116.956 97.83,117.049L97.547,118.744C97.306,118.583 97.064,118.502 96.807,118.502C95.905,118.502 95.393,119.27 95.393,120.776C95.393,121.382 95.434,122.404 95.542,123.831L93.483,123.831C93.604,122.512 93.672,121.328 93.672,120.279C93.672,118.838 93.604,117.735 93.483,116.968L93.631,116.968C94.061,116.968 94.465,116.914 94.842,116.846L95.219,118.421C95.825,117.413 96.472,116.903 97.157,116.903Z" style="fill:rgb(68,37,128);fill-rule:nonzero;"/>
        <path d="M104.517,119.928C105.298,119.095 106.038,118.126 106.765,117.01L108.824,117.01C108.084,117.817 107.25,118.799 106.361,119.969C107.21,120.723 107.963,122.242 109.416,123.831L107.021,123.831C106.173,122.108 105.325,120.91 104.518,120.252C104.545,121.799 104.585,122.996 104.653,123.831L102.608,123.831C102.742,122.055 102.823,120.307 102.823,118.57C102.823,116.713 102.728,115.192 102.553,114.021C103.24,113.925 103.899,113.805 104.572,113.619C104.544,114.964 104.531,117.063 104.517,119.928Z" style="fill:rgb(68,37,128);fill-rule:nonzero;"/>
        <path d="M112.12,114.709C112.12,115.326 111.596,115.906 110.895,115.906C110.371,115.906 109.994,115.475 109.994,114.883C109.994,114.237 110.477,113.753 111.151,113.753C111.771,113.753 112.12,114.103 112.12,114.709ZM111.877,120.118C111.877,121.343 111.918,122.566 112.013,123.792L109.994,123.792C110.1,122.554 110.155,121.384 110.155,120.32C110.155,119.014 110.089,117.911 109.926,116.969C110.586,116.969 111.272,116.915 111.998,116.821C111.918,117.722 111.877,118.825 111.877,120.118Z" style="fill:rgb(68,37,128);fill-rule:nonzero;"/>
        <path d="M118.081,123.832C118.162,122.554 118.229,121.329 118.229,120.118C118.229,118.881 117.946,118.329 117.044,118.329C116.64,118.329 116.142,118.45 115.537,118.731L115.537,119.445C115.537,121.127 115.577,122.594 115.683,123.832L113.626,123.832C113.748,122.513 113.814,121.329 113.814,120.28C113.814,118.839 113.748,117.736 113.626,116.969C114.11,116.969 114.608,116.928 115.093,116.847L115.416,117.83C116.492,117.17 117.354,116.808 118.106,116.808C119.533,116.808 119.963,117.736 119.963,119.7L119.963,120.71C119.963,121.8 120.03,122.837 120.151,123.832L118.081,123.832Z" style="fill:rgb(68,37,128);fill-rule:nonzero;"/>
        <path d="M126.37,118.705C126.41,119.298 126.424,119.741 126.424,120.05C126.424,121.773 125.926,122.634 124.876,122.634C123.84,122.634 123.181,121.786 123.181,120.294C123.181,119.001 123.881,118.193 124.848,118.193C125.348,118.193 125.858,118.355 126.37,118.705ZM128.24,113.62C127.553,113.794 126.882,113.901 126.208,113.956C126.289,115.005 126.343,116.175 126.383,117.468C125.71,117.077 125.092,116.874 124.432,116.874C122.6,116.874 121.337,118.248 121.337,120.401C121.337,122.633 122.601,124.047 124.284,124.047C125.159,124.047 125.939,123.643 126.612,122.836L126.975,123.844L128.442,123.831C128.172,122.458 128.104,120.91 128.104,119.174C128.104,117.385 128.146,115.542 128.24,113.62Z" style="fill:rgb(68,37,128);fill-rule:nonzero;"/>
        <path d="M134.255,119.674L131.402,119.674C131.456,118.597 132.02,117.992 132.909,117.992C133.757,117.992 134.255,118.57 134.255,119.592L134.255,119.674ZM135.924,120.723C135.937,120.575 135.937,120.44 135.937,120.307C135.937,118.059 134.807,116.794 132.923,116.794C130.932,116.794 129.613,118.22 129.613,120.508C129.613,122.701 130.89,124.02 133.03,124.02C133.825,124.02 134.618,123.844 135.398,123.482L135.493,122.15C134.712,122.473 134.039,122.621 133.461,122.621C132.129,122.621 131.402,121.962 131.389,120.724L135.924,120.724L135.924,120.723Z" style="fill:rgb(68,37,128);fill-rule:nonzero;"/>
        <path d="M140.956,116.903C141.158,116.903 141.387,116.956 141.628,117.049L141.346,118.744C141.105,118.583 140.862,118.502 140.607,118.502C139.705,118.502 139.194,119.27 139.194,120.776C139.194,121.382 139.235,122.404 139.342,123.831L137.283,123.831C137.403,122.512 137.471,121.328 137.471,120.279C137.471,118.838 137.404,117.735 137.283,116.968L137.43,116.968C137.861,116.968 138.264,116.914 138.64,116.846L139.017,118.421C139.624,117.413 140.268,116.903 140.956,116.903Z" style="fill:rgb(68,37,128);fill-rule:nonzero;"/>
        <rect x="141.72" y="119.512" width="3.634" height="1.561" style="fill:rgb(68,37,128);fill-rule:nonzero;"/>
        <path d="M152.309,120.723C152.323,121.961 153.05,122.62 154.383,122.62C154.96,122.62 155.634,122.473 156.414,122.149L156.319,123.481C155.539,123.843 154.745,124.019 153.952,124.019C151.811,124.019 150.533,122.701 150.533,120.507C150.533,118.219 151.852,116.793 153.844,116.793C155.727,116.793 156.859,118.058 156.859,120.306C156.859,120.439 156.859,120.574 156.845,120.722L152.309,120.722L152.309,120.723ZM155.176,119.592C155.176,118.571 154.678,117.992 153.831,117.992C152.942,117.992 152.377,118.596 152.323,119.674L155.176,119.674L155.176,119.592Z" style="fill:rgb(68,37,128);fill-rule:nonzero;"/>
        <path d="M162.657,123.832C162.738,122.554 162.805,121.329 162.805,120.118C162.805,118.881 162.523,118.329 161.62,118.329C161.217,118.329 160.719,118.45 160.113,118.731L160.113,119.445C160.113,121.127 160.153,122.594 160.26,123.832L158.202,123.832C158.323,122.513 158.389,121.329 158.389,120.28C158.389,118.839 158.323,117.736 158.202,116.969C158.686,116.969 159.184,116.928 159.668,116.847L159.991,117.83C161.067,117.17 161.929,116.808 162.682,116.808C164.109,116.808 164.54,117.736 164.54,119.7L164.54,120.71C164.54,121.8 164.606,122.837 164.728,123.832L162.657,123.832Z" style="fill:rgb(68,37,128);fill-rule:nonzero;"/>
        <path d="M172.346,119.889C172.346,121.06 172.36,121.921 172.36,122.446C172.36,125.298 171.378,126.753 169.668,126.753C169.494,126.753 169.292,126.724 169.05,126.685L168.794,125.218C169.01,125.259 169.198,125.284 169.373,125.284C170.45,125.284 170.679,124.194 170.679,122.001C170.679,119.688 170.558,118.02 170.395,117.011L170.558,117.011C171.163,117.011 171.794,116.943 172.442,116.862C172.386,117.777 172.346,118.786 172.346,119.889ZM172.574,114.709C172.574,115.326 172.05,115.906 171.348,115.906C170.825,115.906 170.434,115.475 170.434,114.883C170.434,114.237 170.918,113.753 171.592,113.753C172.211,113.753 172.574,114.103 172.574,114.709Z" style="fill:rgb(68,37,128);fill-rule:nonzero;"/>
        <path d="M178.683,119.674L175.831,119.674C175.885,118.597 176.449,117.992 177.337,117.992C178.185,117.992 178.683,118.57 178.683,119.592L178.683,119.674ZM180.353,120.723C180.366,120.575 180.366,120.44 180.366,120.307C180.366,118.059 179.236,116.794 177.351,116.794C175.36,116.794 174.041,118.22 174.041,120.508C174.041,122.701 175.319,124.02 177.459,124.02C178.252,124.02 179.047,123.844 179.827,123.482L179.922,122.15C179.141,122.473 178.468,122.621 177.89,122.621C176.558,122.621 175.831,121.962 175.818,120.724L180.353,120.724L180.353,120.723Z" style="fill:rgb(68,37,128);fill-rule:nonzero;"/>
        <path d="M186.38,123.01C185.236,123.684 184.321,124.02 183.636,124.02C182.425,124.02 181.859,123.24 181.805,121.665C181.792,121.397 181.792,121.101 181.792,120.79L181.792,120.36C181.792,119.419 181.778,118.329 181.604,117.103C182.263,117.037 182.935,116.969 183.623,116.887C183.568,118.139 183.528,119.39 183.528,120.669C183.528,121.934 183.798,122.486 184.78,122.486C185.129,122.486 185.668,122.364 186.26,122.068L186.26,121.435C186.26,119.255 186.179,117.802 186.044,117.102C186.703,117.036 187.362,116.968 188.021,116.886C187.968,118.192 187.941,119.241 187.941,120.064C187.941,121.408 188.036,122.66 188.238,123.831L186.704,123.831L186.38,123.01Z" style="fill:rgb(68,37,128);fill-rule:nonzero;"/>
        <path d="M191.346,123.844C193.296,124.248 194.279,124.073 194.279,124.826C194.279,125.42 193.62,125.889 192.557,125.889C191.467,125.889 190.794,125.378 190.794,124.745C190.794,124.422 190.969,124.141 191.346,123.844ZM194.252,117.239C193.726,116.928 193.136,116.795 192.449,116.795C190.659,116.795 189.596,117.79 189.596,119.204C189.596,120.104 190.027,120.817 190.833,121.182C190.106,121.693 189.743,122.164 189.743,122.661C189.743,123.052 189.945,123.348 190.347,123.536C189.568,124.02 189.191,124.465 189.191,125.029C189.191,126.159 190.362,127.007 192.433,127.007C194.667,127.007 195.958,125.986 195.958,124.572C195.958,123.979 195.743,123.509 195.327,123.186C194.722,122.715 193.873,122.702 192.757,122.566C191.775,122.446 191.29,122.337 191.29,121.854C191.29,121.706 191.37,121.557 191.519,121.397C191.909,121.476 192.273,121.518 192.609,121.518C194.304,121.518 195.367,120.561 195.367,119.215C195.367,118.893 195.287,118.57 195.138,118.247C195.286,118.247 195.448,118.26 195.61,118.26C195.825,118.26 196.053,118.247 196.296,118.235L196.458,117.131C195.88,117.197 195.14,117.239 194.252,117.239ZM192.502,117.993C193.216,117.993 193.7,118.464 193.7,119.204C193.7,119.929 193.202,120.415 192.489,120.415C191.79,120.415 191.304,119.929 191.304,119.19C191.305,118.489 191.79,117.993 192.502,117.993Z" style="fill:rgb(68,37,128);fill-rule:nonzero;"/>
        <path d="M203.685,119.174C203.685,120.91 203.752,122.458 204.021,123.831L202.555,123.844L202.191,122.836C201.519,123.643 200.739,124.047 199.864,124.047C198.182,124.047 196.917,122.633 196.917,120.401C196.917,118.248 198.183,116.874 200.012,116.874C200.671,116.874 201.291,117.077 201.963,117.468C201.923,116.175 201.869,115.005 201.788,113.956C202.461,113.901 203.134,113.794 203.82,113.62C203.724,115.542 203.685,117.385 203.685,119.174ZM200.429,118.193C199.459,118.193 198.76,119.001 198.76,120.294C198.76,121.786 199.418,122.634 200.455,122.634C201.505,122.634 202.002,121.773 202.002,120.05C202.002,119.741 201.989,119.298 201.949,118.705C201.437,118.355 200.926,118.193 200.429,118.193Z" style="fill:rgb(68,37,128);fill-rule:nonzero;"/>
        <path d="M207.317,118.852C207.882,118.45 208.393,118.235 208.905,118.235C209.901,118.235 210.493,118.96 210.493,120.28C210.493,121.786 209.82,122.661 208.77,122.661C207.775,122.661 207.249,121.841 207.249,120.239C207.25,119.889 207.277,119.431 207.317,118.852ZM207.236,123.159C207.856,123.763 208.514,124.06 209.268,124.06C210.991,124.06 212.323,122.526 212.323,120.199C212.323,118.139 211.152,116.795 209.592,116.795C208.744,116.795 207.99,117.145 207.156,117.817L206.846,116.847C206.362,116.928 205.864,116.969 205.38,116.969C205.527,117.843 205.568,119.067 205.568,120.682C205.568,123.455 205.473,125.512 205.339,126.819L207.438,126.819C207.317,125.487 207.25,124.276 207.236,123.159Z" style="fill:rgb(68,37,128);fill-rule:nonzero;"/>
        <path d="M217.706,118.248C217.221,118.101 216.79,118.019 216.4,118.019C215.633,118.019 215.203,118.315 215.203,118.731C215.203,119.204 215.686,119.431 216.454,119.889C217.383,120.44 217.893,120.817 217.893,121.733C217.893,123.025 216.817,123.952 215.014,123.952C214.583,123.952 214.125,123.899 213.615,123.778L213.319,122.405C213.856,122.581 214.395,122.675 214.88,122.675C215.66,122.675 216.105,122.338 216.105,121.962C216.105,121.505 215.701,121.302 215.029,120.872C214.073,120.266 213.508,119.862 213.508,118.934C213.508,117.749 214.558,116.795 216.268,116.795C216.684,116.795 217.128,116.874 217.572,116.995L217.706,118.248Z" style="fill:rgb(68,37,128);fill-rule:nonzero;"/>
        <path d="M218.957,125.473C219.939,125.473 220.693,124.975 221.325,123.939C220.181,120.911 219.306,118.637 218.606,117.144L220.571,116.861C221.014,118.678 221.621,120.44 222.266,122.215C222.912,120.643 223.329,118.92 223.504,117.131L225.388,116.887C223.827,123.603 221.957,126.885 219.158,126.885C219.037,126.885 218.889,126.873 218.715,126.86L218.418,125.421C218.606,125.459 218.782,125.473 218.957,125.473Z" style="fill:rgb(68,37,128);fill-rule:nonzero;"/>
        <path d="M231.282,118.489C230.879,118.3 230.434,118.208 229.977,118.208C228.739,118.208 227.971,119.067 227.971,120.401C227.971,121.747 228.658,122.512 229.735,122.512C230.299,122.512 230.85,122.379 231.43,122.121L231.309,123.535C230.69,123.857 230.043,124.006 229.317,124.006C227.434,124.006 226.182,122.688 226.182,120.615C226.182,118.273 227.555,116.82 229.922,116.82C230.313,116.82 230.69,116.886 231.094,116.994L231.282,118.489Z" style="fill:rgb(68,37,128);fill-rule:nonzero;"/>
        <path d="M232.722,118.571C232.722,116.7 232.615,115.179 232.44,114.022C233.127,113.926 233.799,113.806 234.472,113.62C234.458,114.736 234.445,115.771 234.445,116.727L234.445,117.736C235.508,117.103 236.355,116.795 236.988,116.795C237.984,116.795 238.657,117.454 238.764,118.624C238.859,119.675 238.71,121.423 238.993,123.832L236.933,123.832C237.015,122.566 237.069,121.329 237.069,120.118C237.069,118.867 236.787,118.329 235.844,118.329C235.548,118.329 235.077,118.45 234.432,118.731C234.417,119.095 234.417,119.459 234.417,119.835C234.417,121.101 234.472,122.446 234.553,123.832L232.507,123.832C232.642,122.055 232.722,120.307 232.722,118.571Z" style="fill:rgb(68,37,128);fill-rule:nonzero;"/>
        <path d="M241.657,113.753C240.983,113.753 240.5,114.236 240.5,114.883C240.5,115.476 240.876,115.906 241.401,115.906C242.1,115.906 242.625,115.326 242.625,114.709C242.625,114.103 242.275,113.753 241.657,113.753ZM242.505,116.821C241.778,116.916 241.092,116.969 240.433,116.969C240.594,117.91 240.662,119.014 240.662,120.32C240.662,121.383 240.608,122.553 240.501,123.792L242.518,123.792C242.425,122.566 242.385,121.343 242.385,120.118C242.384,118.825 242.424,117.722 242.505,116.821Z" style="fill:rgb(68,37,128);fill-rule:nonzero;"/>
        <path d="M248.103,122.176C247.605,122.526 247.081,122.701 246.541,122.701C245.989,122.701 245.667,122.391 245.667,121.921C245.667,121.072 246.474,120.615 248.049,120.602C248.049,121.301 248.062,121.827 248.103,122.176ZM248.209,123.025C248.357,123.629 248.748,123.939 249.367,123.939C249.811,123.939 250.227,123.872 250.645,123.723L250.672,122.93L250.55,122.93C249.729,122.93 249.702,122.284 249.702,120.844L249.702,120.211C249.702,118.92 249.608,118.059 248.868,117.44C248.384,117.037 247.778,116.861 246.998,116.861C246.163,116.861 245.302,117.037 244.521,117.385L244.467,118.717C245.166,118.367 245.853,118.207 246.498,118.207C247.509,118.207 248.019,118.637 248.019,119.471L248.019,119.647C245.235,119.727 243.822,120.588 243.822,122.164C243.822,123.32 244.495,123.993 245.692,123.993C246.568,123.993 247.349,123.656 248.209,123.025Z" style="fill:rgb(68,37,128);fill-rule:nonzero;"/>
        <path d="M252.677,115.206C253.149,115.153 253.605,115.06 254.09,114.884C254.023,115.53 253.969,116.243 253.915,117.011L255.664,117.011L255.354,118.248L253.887,118.248C253.848,119.27 253.821,119.997 253.821,120.427C253.821,122.015 254.036,122.634 255.179,122.634C255.381,122.634 255.582,122.609 255.784,122.567L255.502,123.833C255.071,123.914 254.682,123.953 254.332,123.953C252.703,123.953 252.057,123.092 252.057,121.195C252.057,120.764 252.083,119.782 252.124,118.249L250.968,118.249L251.034,117.428L252.219,116.944L252.677,115.206Z" style="fill:rgb(68,37,128);fill-rule:nonzero;"/>
        <path d="M260.469,116.903C260.669,116.903 260.9,116.956 261.141,117.049L260.859,118.744C260.617,118.583 260.375,118.502 260.119,118.502C259.218,118.502 258.706,119.27 258.706,120.776C258.706,121.382 258.747,122.404 258.854,123.831L256.795,123.831C256.916,122.512 256.983,121.328 256.983,120.279C256.983,118.838 256.916,117.735 256.795,116.968L256.942,116.968C257.373,116.968 257.777,116.914 258.153,116.846L258.53,118.421C259.136,117.413 259.782,116.903 260.469,116.903Z" style="fill:rgb(68,37,128);fill-rule:nonzero;"/>
        <path d="M263.038,113.753C262.365,113.753 261.881,114.236 261.881,114.883C261.881,115.476 262.258,115.906 262.782,115.906C263.482,115.906 264.007,115.326 264.007,114.709C264.007,114.103 263.657,113.753 263.038,113.753ZM263.886,116.821C263.159,116.916 262.473,116.969 261.814,116.969C261.974,117.91 262.043,119.014 262.043,120.32C262.043,121.383 261.989,122.553 261.882,123.792L263.901,123.792C263.807,122.566 263.766,121.343 263.766,120.118C263.765,118.825 263.806,117.722 263.886,116.821Z" style="fill:rgb(68,37,128);fill-rule:nonzero;"/>
        <path d="M267.101,120.723C267.116,121.961 267.843,122.62 269.174,122.62C269.752,122.62 270.425,122.473 271.205,122.149L271.112,123.481C270.33,123.843 269.537,124.019 268.743,124.019C266.603,124.019 265.325,122.701 265.325,120.507C265.325,118.219 266.643,116.793 268.636,116.793C270.519,116.793 271.65,118.058 271.65,120.306C271.65,120.439 271.65,120.574 271.636,120.722L267.101,120.722L267.101,120.723ZM269.968,119.592C269.968,118.571 269.471,117.992 268.622,117.992C267.734,117.992 267.169,118.596 267.115,119.674L269.968,119.674L269.968,119.592Z" style="fill:rgb(68,37,128);fill-rule:nonzero;"/>
    </g>
</svg>
