<?xml version="1.0" encoding="utf-8"?>
<!-- Generator: Adobe Illustrator 15.0.0, SVG Export Plug-In . SVG Version: 6.00 Build 0)  -->
<!DOCTYPE svg PUBLIC "-//W3C//DTD SVG 1.1//EN" "http://www.w3.org/Graphics/SVG/1.1/DTD/svg11.dtd">
<svg version="1.1" id="Layer_1" xmlns="http://www.w3.org/2000/svg" xmlns:xlink="http://www.w3.org/1999/xlink" x="0px" y="0px"
	 width="337.385px" height="127.006px" viewBox="0 0 337.385 127.006" enable-background="new 0 0 337.385 127.006"
	 xml:space="preserve">
<g>
	<g>
		<path fill="#442580" d="M27.619,62.757c0.101,2.431,0.201,4.206,0.201,5.437c0,5.366-1.854,7.941-7.016,7.941
			c-5.011,0-7.967-2.686-7.967-7.541c0-5.076,2.906-7.938,7.517-7.938C22.859,60.657,25.314,61.38,27.619,62.757z M31.578,49.854
			c-1.403,0.326-2.808,0.58-4.209,0.763c0.25,2.61,0.399,6.052,0.399,10.365c-2.654-1.522-5.21-2.248-7.865-2.248
			c-6.013,0-10.522,3.77-10.522,9.569c0,6.092,4.359,9.679,10.673,9.679c3.255,0,6.063-0.979,8.116-2.861l1.253,2.318l2.455-0.074
			c-0.851-2.681-0.851-6.306-0.851-10.946C31.027,61.742,31.225,56.271,31.578,49.854z"/>
		<path fill="#442580" d="M53.374,66.528H40.096c0.351-3.806,2.806-5.871,6.713-5.871C51.068,60.657,53.273,62.648,53.374,66.528z
			 M56.881,68.377v-0.543c0-5.838-3.858-9.171-9.971-9.171c-6.313,0-10.573,3.552-10.573,9.531c0,6.271,4.109,9.572,11.775,9.572
			c2.305,0,4.56-0.362,6.965-1.053l0.2-2.029c-2.255,0.725-4.56,1.088-6.765,1.088c-5.711,0-8.468-2.43-8.567-7.395H56.881z"/>
		<path fill="#442580" d="M80.335,71.495c0-0.943-0.059-3.43-0.059-7.416c0.948-0.045,1.896-0.086,2.726-0.086
			c5.688,0,8.355,1.072,8.355,3.729c0,2.614-3.023,3.813-9.126,3.813C81.64,71.536,80.987,71.536,80.335,71.495z M68.129,77.365
			h9.659c8.65,0,15.227-0.085,20.383-2.743c2.963-1.543,4.621-3.899,4.621-6.599c0-4.03-3.614-6.304-10.784-6.817
			c5.925-1.328,8.948-3.814,8.948-6.944c0-5.187-6.281-7.114-19.08-7.114c-1.718,0-3.792,0.042-6.162,0.042h-7.407
			c0.711,5.36,1.067,10.33,1.067,14.961C69.374,67.379,68.959,72.436,68.129,77.365z M80.276,59.362c0-2.572,0-4.758,0.117-6.472
			c1.009-0.041,2.016-0.041,3.082-0.041c4.385,0,6.578,0.941,6.578,3c0,2.312-2.844,3.513-8.592,3.513H80.276z"/>
		<path fill="#442580" d="M123.116,67.294c0.06,1.543,0.118,3.085,0.237,4.628c-1.719,0.858-3.556,1.242-5.096,1.242
			c-2.015,0-3.142-0.814-3.142-2.271C115.116,68.708,117.902,67.379,123.116,67.294z M136.684,73.551h-0.473
			c-3.199,0-3.495-1.673-3.495-5.572c0-1.071,0.059-2.443,0.059-4.03c0-6.386-3.555-9.215-12.739-9.215
			c-3.556,0-7.881,0.685-12.443,2.186l-0.593,5.23c3.97-1.159,7.348-1.844,10.31-1.844c3.733,0,5.748,1.201,5.748,3.301v0.386
			c-12.623,0.343-18.666,2.829-18.666,8.23c0,3.558,3.023,5.744,8.237,5.744c4.029,0,7.525-1.071,11.378-3.172
			c0.71,2.143,2.369,3.042,5.509,3.042c2.193,0,4.563-0.343,7.169-0.985V73.551z"/>
		<path fill="#442580" d="M158.667,60.563c-2.251-0.387-4.028-0.599-5.332-0.599c-3.199,0-4.799,0.685-4.799,1.885
			c0,0.944,1.659,1.501,4.384,2.572c4.385,1.758,6.755,3.13,6.755,6.13c0,4.416-5.036,7.159-14.221,7.159
			c-2.37,0-4.503-0.171-6.458-0.558l-1.187-5.531c3.024,0.602,5.63,0.859,7.645,0.859c2.666,0,4.029-0.644,4.029-1.715
			c0-1.285-2.074-1.758-5.215-2.959c-3.969-1.543-5.983-2.914-5.983-5.743c0-4.331,4.799-7.204,13.213-7.204
			c2.134,0,4.267,0.173,6.399,0.558L158.667,60.563z"/>
		<path fill="#442580" d="M185.568,61.507c-1.718-0.688-3.437-1.03-5.273-1.03c-5.154,0-8.235,2.23-8.235,5.787
			c0,3.428,2.726,5.443,7.287,5.443c2.073,0,4.387-0.428,6.814-1.201l-0.533,5.788c-3.318,1.2-6.517,1.759-9.836,1.759
			c-8.591,0-14.22-4.416-14.22-10.975c0-7.717,6.278-12.345,16.887-12.345c2.015,0,3.971,0.215,5.985,0.599L185.568,61.507z"/>
		<path fill="#442580" d="M197.598,77.751c-2.549,0-4.682-0.644-6.163-1.843c-2.133-1.756-2.252-4.157-2.252-7.629v-1.502
			c0-4.372-0.354-8.015-1.007-10.843l11.437-0.9c-0.298,6.301-0.356,9.945-0.356,10.844c0,3.899,1.067,5.616,5.156,5.616
			c1.54,0,3.139-0.301,4.977-0.943v-3.518c0-4.371-0.236-8.058-0.947-11.185l11.079-0.9c-0.117,3.729-0.176,6.514-0.176,8.401
			c0,4.885,0.117,9.517,1.301,14.015c-1.065-0.041-2.192-0.041-3.257-0.041c-1.838,0-3.734,0.041-5.571,0.216l-1.659-3.131
			C205.064,76.594,201.034,77.751,197.598,77.751z"/>
		<path fill="#442580" d="M235.164,62.321c0,5.744,0.236,10.803,0.829,15.044h-11.909c0.652-4.155,1.007-9.516,1.007-15.943
			c0-5.703-0.415-10.675-1.481-15.047c4.089-0.256,8.118-0.771,12.089-1.542C235.224,49.932,235.164,55.763,235.164,62.321z"/>
		<path fill="#442580" d="M259.695,64.034h-10.488c0.237-2.955,2.133-4.5,5.451-4.5c3.199,0,5.097,1.416,5.097,3.944
			C259.755,63.649,259.695,63.822,259.695,64.034z M269.116,67.763c0.06-0.558,0.06-1.112,0.06-1.669
			c0-7.331-5.215-11.36-14.518-11.36c-9.42,0-15.644,4.758-15.644,11.958c0,7.16,5.808,11.361,16.295,11.361
			c3.675,0,7.348-0.688,11.317-2.016l0.593-5.1c-3.615,0.899-6.872,1.371-10.014,1.371c-5.036,0-7.82-1.587-8.058-4.546H269.116z"/>
		<g>
			<g>
				<path fill="#0094C2" d="M337.371,28.496c-1.21-14.599-83.858-19.688-184.611-11.369C88.161,22.46,31.807,32.012,0,42.026
					C32.064,35.071,74.957,28.9,122.276,24.991c100.752-8.316,183.404-3.227,184.61,11.372c0.431,5.239-9.682,10.988-27.483,16.592
					C315.612,45.1,338.008,36.239,337.371,28.496z"/>
			</g>
			<g>
				<path fill="#0094C2" d="M153.377,7.684c-0.601-7.298-41.93-9.847-92.304-5.687C45.197,3.307,30.32,5.133,17.404,7.236
					c4.922-0.525,9.983-1.006,15.15-1.434c50.376-4.159,91.704-1.613,92.306,5.685c0.41,5-18.386,10.932-46.455,15.51
					C121.475,22.389,153.919,14.233,153.377,7.684z"/>
			</g>
		</g>
	</g>
	<path fill="#442580" d="M74.242,99.346c0.417,1.292,0.794,2.584,1.144,3.889h-2.422C73.367,101.903,73.784,100.612,74.242,99.346z
		 M73.005,97.705c-0.472,2.247-1.562,5.409-3.229,9.513h2.18c0.175-0.9,0.39-1.762,0.646-2.57h3.136
		c0.255,0.822,0.484,1.67,0.672,2.57h2.368c-1.305-3.202-2.408-6.363-3.229-9.5c-0.39,0.014-0.767,0.014-1.157,0.014
		C73.932,97.731,73.461,97.731,73.005,97.705z"/>
	<path fill="#442580" d="M84.348,101.875c-0.403-0.188-0.848-0.281-1.306-0.281c-1.237,0-2.004,0.859-2.004,2.193
		c0,1.345,0.685,2.111,1.762,2.111c0.565,0,1.117-0.134,1.695-0.391l-0.12,1.413c-0.62,0.323-1.265,0.472-1.992,0.472
		c-1.884,0-3.135-1.318-3.135-3.391c0-2.342,1.372-3.795,3.74-3.795c0.39,0,0.767,0.066,1.171,0.174L84.348,101.875z"/>
	<path fill="#442580" d="M89.555,105.563c-0.498,0.35-1.022,0.525-1.561,0.525c-0.552,0-0.875-0.311-0.875-0.781
		c0-0.848,0.808-1.305,2.381-1.319C89.5,104.688,89.515,105.213,89.555,105.563z M89.662,106.411
		c0.147,0.604,0.538,0.914,1.157,0.914c0.444,0,0.861-0.066,1.279-0.215l0.027-0.793h-0.122c-0.821,0-0.847-0.646-0.847-2.086
		v-0.633c0-1.292-0.095-2.153-0.835-2.771c-0.484-0.404-1.09-0.579-1.87-0.579c-0.834,0-1.695,0.175-2.476,0.524l-0.053,1.332
		c0.7-0.35,1.385-0.51,2.031-0.51c1.009,0,1.521,0.429,1.521,1.264v0.176c-2.786,0.08-4.199,0.941-4.199,2.516
		c0,1.156,0.673,1.829,1.87,1.829C88.021,107.378,88.802,107.042,89.662,106.411z"/>
	<path fill="#442580" d="M97.83,102.09c0.04,0.594,0.055,1.037,0.055,1.346c0,1.723-0.498,2.584-1.549,2.584
		c-1.036,0-1.695-0.848-1.695-2.341c0-1.292,0.7-2.101,1.668-2.101C96.807,101.579,97.318,101.741,97.83,102.09z M99.701,97.005
		c-0.688,0.174-1.359,0.282-2.032,0.337c0.08,1.048,0.134,2.219,0.175,3.512c-0.673-0.391-1.292-0.594-1.952-0.594
		c-1.831,0-3.094,1.373-3.094,3.527c0,2.232,1.264,3.646,2.947,3.646c0.874,0,1.654-0.404,2.327-1.211l0.362,1.009l1.468-0.014
		c-0.269-1.373-0.337-2.92-0.337-4.656C99.565,100.772,99.606,98.928,99.701,97.005z"/>
	<path fill="#442580" d="M105.716,103.06h-2.853c0.054-1.077,0.618-1.682,1.506-1.682c0.849,0,1.347,0.578,1.347,1.601V103.06z
		 M107.384,104.11c0.014-0.148,0.014-0.283,0.014-0.417c0-2.248-1.13-3.512-3.014-3.512c-1.993,0-3.311,1.427-3.311,3.714
		c0,2.193,1.277,3.512,3.418,3.512c0.794,0,1.588-0.176,2.368-0.539l0.095-1.331c-0.781,0.323-1.454,0.47-2.033,0.47
		c-1.332,0-2.058-0.659-2.073-1.896H107.384z"/>
	<path fill="#442580" d="M117.396,100.181c1.009,0,1.668,0.673,1.763,1.842c0.094,1.063-0.054,2.813,0.229,5.194h-2.045
		c0.08-1.25,0.12-2.489,0.12-3.7c0-1.237-0.282-1.815-1.156-1.815c-0.391,0-0.875,0.135-1.427,0.389
		c0.04,2.033,0.04,3.741,0.188,5.127h-2.006c0.082-1.305,0.122-2.447,0.122-3.445c0-1.411-0.175-2.07-1.197-2.07
		c-0.418,0-0.875,0.121-1.359,0.375v0.875c0,1.453,0.054,2.88,0.161,4.266h-2.045c0.121-1.318,0.188-2.502,0.188-3.551
		c0-1.441-0.067-2.545-0.188-3.312c0.484,0,0.981-0.04,1.466-0.121l0.323,0.981c1.091-0.672,1.938-1.034,2.611-1.034
		c0.74,0,1.291,0.376,1.588,1.075C115.861,100.543,116.749,100.181,117.396,100.181z"/>
	<path fill="#442580" d="M123.021,98.094c0,0.619-0.525,1.199-1.226,1.199c-0.524,0-0.902-0.432-0.902-1.023
		c0-0.646,0.485-1.131,1.158-1.131C122.669,97.139,123.021,97.489,123.021,98.094z M122.777,103.504
		c0,1.224,0.041,2.447,0.135,3.674h-2.019c0.108-1.239,0.163-2.408,0.163-3.473c0-1.305-0.068-2.408-0.229-3.351
		c0.659,0,1.346-0.054,2.072-0.147C122.818,101.109,122.777,102.211,122.777,103.504z"/>
	<path fill="#442580" d="M128.631,101.633c-0.485-0.146-0.915-0.229-1.306-0.229c-0.767,0-1.198,0.297-1.198,0.713
		c0,0.472,0.485,0.701,1.252,1.158c0.928,0.551,1.44,0.928,1.44,1.844c0,1.291-1.076,2.219-2.88,2.219
		c-0.431,0-0.888-0.053-1.399-0.174l-0.296-1.373c0.538,0.176,1.077,0.269,1.561,0.269c0.78,0,1.225-0.337,1.225-0.713
		c0-0.457-0.404-0.659-1.076-1.089c-0.955-0.607-1.521-1.01-1.521-1.938c0-1.185,1.049-2.139,2.759-2.139
		c0.416,0,0.861,0.079,1.305,0.2L128.631,101.633z"/>
	<path fill="#442580" d="M135.009,101.875c-0.404-0.188-0.848-0.281-1.305-0.281c-1.238,0-2.006,0.859-2.006,2.193
		c0,1.345,0.687,2.111,1.763,2.111c0.565,0,1.117-0.134,1.695-0.391l-0.12,1.413c-0.619,0.323-1.266,0.472-1.992,0.472
		c-1.884,0-3.135-1.318-3.135-3.391c0-2.342,1.373-3.795,3.741-3.795c0.39,0,0.767,0.066,1.17,0.174L135.009,101.875z"/>
	<path fill="#442580" d="M136.448,101.957c0-1.87-0.107-3.391-0.282-4.548c0.685-0.096,1.359-0.216,2.032-0.403
		c-0.014,1.116-0.028,2.151-0.028,3.108v1.008c1.064-0.633,1.911-0.94,2.544-0.94c0.995,0,1.669,0.659,1.776,1.829
		c0.094,1.05-0.054,2.799,0.229,5.207h-2.06c0.08-1.266,0.134-2.502,0.134-3.713c0-1.251-0.282-1.789-1.224-1.789
		c-0.296,0-0.767,0.121-1.413,0.402c-0.014,0.364-0.014,0.727-0.014,1.103c0,1.267,0.055,2.611,0.135,3.997h-2.045
		C136.367,105.442,136.448,103.693,136.448,101.957z"/>
	<path fill="#442580" d="M153.107,101.875c-0.404-0.188-0.849-0.281-1.306-0.281c-1.238,0-2.005,0.859-2.005,2.193
		c0,1.345,0.687,2.111,1.762,2.111c0.566,0,1.118-0.134,1.696-0.391l-0.121,1.413c-0.619,0.323-1.265,0.472-1.992,0.472
		c-1.883,0-3.135-1.318-3.135-3.391c0-2.342,1.373-3.795,3.741-3.795c0.391,0,0.767,0.066,1.17,0.174L153.107,101.875z"/>
	<path fill="#442580" d="M158.799,103.06h-2.853c0.054-1.077,0.619-1.682,1.507-1.682c0.848,0,1.346,0.578,1.346,1.601V103.06z
		 M160.467,104.11c0.013-0.148,0.013-0.283,0.013-0.417c0-2.248-1.129-3.512-3.013-3.512c-1.992,0-3.311,1.427-3.311,3.714
		c0,2.193,1.278,3.512,3.418,3.512c0.794,0,1.588-0.176,2.368-0.539l0.094-1.331c-0.78,0.323-1.452,0.47-2.031,0.47
		c-1.332,0-2.059-0.659-2.073-1.896H160.467z"/>
	<path fill="#442580" d="M166.28,107.217c0.081-1.278,0.147-2.502,0.147-3.713c0-1.238-0.282-1.789-1.184-1.789
		c-0.403,0-0.901,0.121-1.507,0.402v0.714c0,1.681,0.04,3.149,0.148,4.386h-2.06c0.121-1.318,0.188-2.502,0.188-3.551
		c0-1.441-0.067-2.545-0.188-3.312c0.483,0,0.982-0.04,1.467-0.121l0.323,0.981c1.077-0.658,1.938-1.021,2.691-1.021
		c1.426,0,1.857,0.928,1.857,2.893v1.008c0,1.092,0.067,2.128,0.188,3.123H166.28z"/>
	<path fill="#442580" d="M170.868,98.592c0.472-0.053,0.929-0.147,1.413-0.322c-0.067,0.646-0.121,1.359-0.175,2.127h1.748
		l-0.309,1.236h-1.467c-0.04,1.022-0.066,1.75-0.066,2.181c0,1.587,0.215,2.206,1.358,2.206c0.202,0,0.404-0.027,0.604-0.068
		l-0.281,1.266c-0.431,0.082-0.82,0.121-1.17,0.121c-1.629,0-2.274-0.861-2.274-2.758c0-0.431,0.027-1.413,0.066-2.947h-1.156
		l0.065-0.821l1.186-0.483L170.868,98.592z"/>
	<path fill="#442580" d="M178.66,100.289c0.201,0,0.431,0.054,0.672,0.147l-0.282,1.695c-0.242-0.162-0.484-0.242-0.74-0.242
		c-0.901,0-1.412,0.767-1.412,2.273c0,0.607,0.039,1.629,0.146,3.055h-2.058c0.121-1.318,0.188-2.502,0.188-3.551
		c0-1.441-0.067-2.545-0.188-3.312h0.147c0.431,0,0.835-0.054,1.211-0.121l0.377,1.575
		C177.327,100.799,177.974,100.289,178.66,100.289z"/>
	<path fill="#442580" d="M184.675,106.397c-1.145,0.674-2.06,1.01-2.746,1.01c-1.211,0-1.775-0.78-1.83-2.355
		c-0.013-0.269-0.013-0.564-0.013-0.875v-0.43c0-0.942-0.014-2.031-0.188-3.258c0.659-0.066,1.332-0.134,2.019-0.215
		c-0.054,1.252-0.095,2.503-0.095,3.781c0,1.266,0.27,1.817,1.251,1.817c0.351,0,0.889-0.12,1.48-0.417v-0.633
		c0-2.18-0.08-3.633-0.216-4.334c0.66-0.066,1.32-0.134,1.979-0.215c-0.054,1.305-0.081,2.355-0.081,3.176
		c0,1.346,0.094,2.598,0.296,3.768h-1.534L184.675,106.397z"/>
	<path fill="#442580" d="M196.597,100.181c1.008,0,1.668,0.673,1.763,1.842c0.094,1.063-0.055,2.813,0.228,5.194h-2.045
		c0.081-1.25,0.121-2.489,0.121-3.7c0-1.237-0.282-1.815-1.156-1.815c-0.391,0-0.875,0.135-1.427,0.389
		c0.04,2.033,0.04,3.741,0.188,5.127h-2.006c0.081-1.305,0.122-2.447,0.122-3.445c0-1.411-0.176-2.07-1.198-2.07
		c-0.418,0-0.875,0.121-1.358,0.375v0.875c0,1.453,0.054,2.88,0.161,4.266h-2.046c0.122-1.318,0.189-2.502,0.189-3.551
		c0-1.441-0.067-2.545-0.189-3.312c0.485,0,0.982-0.04,1.467-0.121l0.323,0.981c1.09-0.672,1.938-1.034,2.61-1.034
		c0.74,0,1.292,0.376,1.588,1.075C195.062,100.543,195.95,100.181,196.597,100.181z"/>
	<path fill="#442580" d="M73.287,121.88c0.861-1.804,1.265-3.404,1.426-4.749l1.991-0.284c-0.511,2.073-1.439,4.4-2.745,7.024
		h-1.614c-0.78-2.396-1.695-4.643-2.759-6.74l2.086-0.284C72.076,118.624,72.614,120.307,73.287,121.88z"/>
	<path fill="#442580" d="M80.755,118.179c1.104,0,1.682,0.754,1.682,2.235c0,1.479-0.592,2.232-1.682,2.232
		c-1.076,0-1.669-0.767-1.669-2.232C79.086,118.947,79.679,118.179,80.755,118.179z M80.755,116.794
		c-2.113,0-3.498,1.426-3.498,3.632c0,2.207,1.385,3.621,3.498,3.621c2.126,0,3.498-1.414,3.498-3.621
		C84.253,118.22,82.867,116.794,80.755,116.794z"/>
	<path fill="#442580" d="M88.733,118.179c1.104,0,1.683,0.754,1.683,2.235c0,1.479-0.592,2.232-1.683,2.232
		c-1.075,0-1.668-0.767-1.668-2.232C87.065,118.947,87.658,118.179,88.733,118.179z M88.733,116.794
		c-2.111,0-3.498,1.426-3.498,3.632c0,2.207,1.387,3.621,3.498,3.621c2.127,0,3.499-1.414,3.499-3.621
		C92.232,118.22,90.847,116.794,88.733,116.794z"/>
	<path fill="#442580" d="M97.157,116.903c0.202,0,0.43,0.053,0.673,0.146l-0.283,1.695c-0.241-0.161-0.483-0.242-0.74-0.242
		c-0.902,0-1.414,0.768-1.414,2.274c0,0.606,0.041,1.628,0.149,3.055h-2.059c0.121-1.319,0.189-2.503,0.189-3.552
		c0-1.441-0.068-2.544-0.189-3.311h0.148c0.43,0,0.834-0.054,1.211-0.122l0.377,1.575C95.825,117.413,96.472,116.903,97.157,116.903
		z"/>
	<path fill="#442580" d="M104.517,119.928c0.781-0.833,1.521-1.802,2.248-2.918h2.059c-0.74,0.807-1.574,1.789-2.463,2.959
		c0.849,0.754,1.602,2.273,3.055,3.862h-2.395c-0.848-1.723-1.696-2.921-2.503-3.579c0.027,1.547,0.067,2.744,0.135,3.579h-2.045
		c0.134-1.776,0.215-3.524,0.215-5.261c0-1.857-0.095-3.378-0.27-4.549c0.687-0.096,1.346-0.216,2.019-0.402
		C104.544,114.964,104.531,117.063,104.517,119.928z"/>
	<path fill="#442580" d="M112.12,114.709c0,0.617-0.524,1.197-1.225,1.197c-0.524,0-0.901-0.431-0.901-1.023
		c0-0.646,0.483-1.13,1.157-1.13C111.771,113.753,112.12,114.103,112.12,114.709z M111.877,120.118c0,1.225,0.041,2.448,0.136,3.674
		h-2.019c0.106-1.238,0.161-2.408,0.161-3.472c0-1.306-0.066-2.409-0.229-3.351c0.66,0,1.346-0.054,2.072-0.148
		C111.918,117.722,111.877,118.825,111.877,120.118z"/>
	<path fill="#442580" d="M118.081,123.832c0.081-1.278,0.148-2.503,0.148-3.714c0-1.237-0.283-1.789-1.185-1.789
		c-0.404,0-0.902,0.121-1.507,0.402v0.714c0,1.682,0.04,3.149,0.146,4.387h-2.057c0.122-1.319,0.188-2.503,0.188-3.552
		c0-1.441-0.066-2.544-0.188-3.311c0.484,0,0.982-0.041,1.467-0.122l0.323,0.983c1.076-0.66,1.938-1.022,2.69-1.022
		c1.427,0,1.857,0.928,1.857,2.892v1.01c0,1.09,0.067,2.127,0.188,3.122H118.081z"/>
	<path fill="#442580" d="M126.37,118.705c0.04,0.593,0.054,1.036,0.054,1.345c0,1.723-0.498,2.584-1.548,2.584
		c-1.036,0-1.695-0.848-1.695-2.34c0-1.293,0.7-2.101,1.667-2.101C125.348,118.193,125.858,118.355,126.37,118.705z M128.24,113.62
		c-0.687,0.174-1.358,0.281-2.032,0.336c0.081,1.049,0.135,2.219,0.175,3.512c-0.673-0.391-1.291-0.594-1.951-0.594
		c-1.832,0-3.095,1.374-3.095,3.527c0,2.232,1.264,3.646,2.947,3.646c0.875,0,1.655-0.404,2.328-1.211l0.363,1.008l1.467-0.013
		c-0.27-1.373-0.338-2.921-0.338-4.657C128.104,117.385,128.146,115.542,128.24,113.62z"/>
	<path fill="#442580" d="M134.255,119.674h-2.853c0.054-1.077,0.618-1.682,1.507-1.682c0.848,0,1.346,0.578,1.346,1.6V119.674z
		 M135.924,120.723c0.013-0.148,0.013-0.283,0.013-0.416c0-2.248-1.13-3.513-3.014-3.513c-1.991,0-3.31,1.426-3.31,3.714
		c0,2.193,1.277,3.512,3.417,3.512c0.795,0,1.588-0.176,2.368-0.538l0.095-1.332c-0.781,0.323-1.454,0.471-2.032,0.471
		c-1.332,0-2.059-0.659-2.072-1.897H135.924z"/>
	<path fill="#442580" d="M140.956,116.903c0.202,0,0.431,0.053,0.672,0.146l-0.282,1.695c-0.241-0.161-0.484-0.242-0.739-0.242
		c-0.902,0-1.413,0.768-1.413,2.274c0,0.606,0.041,1.628,0.148,3.055h-2.059c0.12-1.319,0.188-2.503,0.188-3.552
		c0-1.441-0.067-2.544-0.188-3.311h0.147c0.431,0,0.834-0.054,1.21-0.122l0.377,1.575
		C139.624,117.413,140.268,116.903,140.956,116.903z"/>
	<path fill="#442580" d="M145.354,119.512v1.561h-3.634v-1.561H145.354z"/>
	<path fill="#442580" d="M152.309,120.723c0.014,1.238,0.741,1.897,2.074,1.897c0.577,0,1.251-0.147,2.031-0.471l-0.095,1.332
		c-0.78,0.362-1.574,0.538-2.367,0.538c-2.141,0-3.419-1.318-3.419-3.512c0-2.288,1.319-3.714,3.311-3.714
		c1.883,0,3.015,1.265,3.015,3.513c0,0.133,0,0.268-0.014,0.416H152.309z M155.176,119.592c0-1.021-0.498-1.6-1.345-1.6
		c-0.889,0-1.454,0.604-1.508,1.682h2.853V119.592z"/>
	<path fill="#442580" d="M162.657,123.832c0.081-1.278,0.148-2.503,0.148-3.714c0-1.237-0.282-1.789-1.185-1.789
		c-0.403,0-0.901,0.121-1.507,0.402v0.714c0,1.682,0.04,3.149,0.147,4.387h-2.058c0.121-1.319,0.187-2.503,0.187-3.552
		c0-1.441-0.066-2.544-0.187-3.311c0.484,0,0.982-0.041,1.466-0.122l0.323,0.983c1.076-0.66,1.938-1.022,2.691-1.022
		c1.427,0,1.858,0.928,1.858,2.892v1.01c0,1.09,0.066,2.127,0.188,3.122H162.657z"/>
	<path fill="#442580" d="M172.346,119.889c0,1.171,0.014,2.032,0.014,2.557c0,2.852-0.982,4.307-2.692,4.307
		c-0.174,0-0.376-0.029-0.618-0.068l-0.256-1.467c0.216,0.041,0.404,0.066,0.579,0.066c1.077,0,1.306-1.09,1.306-3.283
		c0-2.313-0.121-3.981-0.284-4.99h0.163c0.605,0,1.236-0.068,1.884-0.149C172.386,117.777,172.346,118.786,172.346,119.889z
		 M172.574,114.709c0,0.617-0.524,1.197-1.226,1.197c-0.523,0-0.914-0.431-0.914-1.023c0-0.646,0.484-1.13,1.158-1.13
		C172.211,113.753,172.574,114.103,172.574,114.709z"/>
	<path fill="#442580" d="M178.683,119.674h-2.852c0.054-1.077,0.618-1.682,1.506-1.682c0.848,0,1.346,0.578,1.346,1.6V119.674z
		 M180.353,120.723c0.013-0.148,0.013-0.283,0.013-0.416c0-2.248-1.13-3.513-3.015-3.513c-1.991,0-3.31,1.426-3.31,3.714
		c0,2.193,1.278,3.512,3.418,3.512c0.793,0,1.588-0.176,2.368-0.538l0.095-1.332c-0.781,0.323-1.454,0.471-2.032,0.471
		c-1.332,0-2.059-0.659-2.072-1.897H180.353z"/>
	<path fill="#442580" d="M186.38,123.01c-1.144,0.674-2.059,1.01-2.744,1.01c-1.211,0-1.777-0.78-1.831-2.355
		c-0.013-0.268-0.013-0.564-0.013-0.875v-0.43c0-0.941-0.014-2.031-0.188-3.257c0.659-0.066,1.331-0.134,2.019-0.216
		c-0.055,1.252-0.095,2.503-0.095,3.782c0,1.265,0.27,1.817,1.252,1.817c0.349,0,0.888-0.122,1.48-0.418v-0.633
		c0-2.18-0.081-3.633-0.216-4.333c0.659-0.066,1.318-0.134,1.977-0.216c-0.053,1.306-0.08,2.355-0.08,3.178
		c0,1.344,0.095,2.596,0.297,3.767h-1.534L186.38,123.01z"/>
	<path fill="#442580" d="M191.346,123.844c1.95,0.404,2.933,0.229,2.933,0.982c0,0.594-0.659,1.063-1.722,1.063
		c-1.09,0-1.763-0.511-1.763-1.144C190.794,124.422,190.969,124.141,191.346,123.844z M194.252,117.239
		c-0.526-0.311-1.116-0.444-1.803-0.444c-1.79,0-2.853,0.995-2.853,2.409c0,0.9,0.431,1.613,1.237,1.978
		c-0.727,0.511-1.09,0.982-1.09,1.479c0,0.391,0.202,0.687,0.604,0.875c-0.779,0.484-1.156,0.929-1.156,1.493
		c0,1.13,1.171,1.978,3.242,1.978c2.234,0,3.525-1.021,3.525-2.435c0-0.593-0.215-1.063-0.631-1.386
		c-0.605-0.471-1.454-0.484-2.57-0.62c-0.982-0.12-1.467-0.229-1.467-0.712c0-0.148,0.08-0.297,0.229-0.457
		c0.39,0.079,0.754,0.121,1.09,0.121c1.695,0,2.758-0.957,2.758-2.303c0-0.322-0.08-0.645-0.229-0.968
		c0.148,0,0.31,0.013,0.472,0.013c0.215,0,0.443-0.013,0.686-0.025l0.162-1.104C195.88,117.197,195.14,117.239,194.252,117.239z
		 M192.502,117.993c0.714,0,1.198,0.471,1.198,1.211c0,0.725-0.498,1.211-1.211,1.211c-0.699,0-1.185-0.486-1.185-1.225
		C191.305,118.489,191.79,117.993,192.502,117.993z"/>
	<path fill="#442580" d="M203.685,119.174c0,1.736,0.067,3.284,0.336,4.657l-1.466,0.013l-0.364-1.008
		c-0.672,0.807-1.452,1.211-2.327,1.211c-1.682,0-2.947-1.414-2.947-3.646c0-2.153,1.266-3.527,3.095-3.527
		c0.659,0,1.279,0.203,1.951,0.594c-0.04-1.293-0.094-2.463-0.175-3.512c0.673-0.055,1.346-0.162,2.032-0.336
		C203.724,115.542,203.685,117.385,203.685,119.174z M200.429,118.193c-0.97,0-1.669,0.808-1.669,2.101
		c0,1.492,0.658,2.34,1.695,2.34c1.05,0,1.547-0.861,1.547-2.584c0-0.309-0.013-0.752-0.053-1.345
		C201.437,118.355,200.926,118.193,200.429,118.193z"/>
	<path fill="#442580" d="M207.317,118.852c0.565-0.402,1.076-0.617,1.588-0.617c0.996,0,1.588,0.725,1.588,2.045
		c0,1.506-0.673,2.381-1.723,2.381c-0.995,0-1.521-0.82-1.521-2.422C207.25,119.889,207.277,119.431,207.317,118.852z
		 M207.236,123.159c0.62,0.604,1.278,0.901,2.032,0.901c1.723,0,3.055-1.534,3.055-3.861c0-2.06-1.171-3.404-2.731-3.404
		c-0.848,0-1.602,0.35-2.436,1.022l-0.31-0.97c-0.484,0.081-0.982,0.122-1.466,0.122c0.147,0.874,0.188,2.098,0.188,3.713
		c0,2.773-0.095,4.83-0.229,6.137h2.099C207.317,125.487,207.25,124.276,207.236,123.159z"/>
	<path fill="#442580" d="M217.706,118.248c-0.485-0.147-0.916-0.229-1.306-0.229c-0.767,0-1.197,0.296-1.197,0.712
		c0,0.473,0.483,0.7,1.251,1.158c0.929,0.551,1.439,0.928,1.439,1.844c0,1.292-1.076,2.219-2.879,2.219
		c-0.431,0-0.889-0.053-1.399-0.174l-0.296-1.373c0.537,0.176,1.076,0.27,1.561,0.27c0.78,0,1.225-0.337,1.225-0.713
		c0-0.457-0.404-0.66-1.076-1.09c-0.956-0.606-1.521-1.01-1.521-1.938c0-1.185,1.05-2.139,2.76-2.139c0.416,0,0.86,0.079,1.304,0.2
		L217.706,118.248z"/>
	<path fill="#442580" d="M218.957,125.473c0.982,0,1.736-0.498,2.368-1.534c-1.144-3.028-2.019-5.302-2.719-6.795l1.965-0.283
		c0.443,1.817,1.05,3.579,1.695,5.354c0.646-1.572,1.063-3.295,1.238-5.084l1.884-0.244c-1.561,6.716-3.431,9.998-6.23,9.998
		c-0.121,0-0.269-0.012-0.443-0.025l-0.297-1.439C218.606,125.459,218.782,125.473,218.957,125.473z"/>
	<path fill="#442580" d="M231.282,118.489c-0.403-0.189-0.848-0.281-1.305-0.281c-1.238,0-2.006,0.859-2.006,2.193
		c0,1.346,0.687,2.111,1.764,2.111c0.564,0,1.115-0.133,1.695-0.391l-0.121,1.414c-0.619,0.322-1.266,0.471-1.992,0.471
		c-1.883,0-3.135-1.318-3.135-3.391c0-2.342,1.373-3.795,3.74-3.795c0.391,0,0.768,0.066,1.172,0.174L231.282,118.489z"/>
	<path fill="#442580" d="M232.722,118.571c0-1.871-0.107-3.392-0.282-4.549c0.687-0.096,1.359-0.216,2.032-0.402
		c-0.014,1.116-0.027,2.151-0.027,3.107v1.009c1.063-0.633,1.91-0.941,2.543-0.941c0.996,0,1.669,0.659,1.776,1.829
		c0.095,1.051-0.054,2.799,0.229,5.208h-2.06c0.082-1.266,0.136-2.503,0.136-3.714c0-1.251-0.282-1.789-1.225-1.789
		c-0.296,0-0.767,0.121-1.412,0.402c-0.015,0.364-0.015,0.728-0.015,1.104c0,1.266,0.055,2.611,0.136,3.997h-2.046
		C232.642,122.055,232.722,120.307,232.722,118.571z"/>
	<path fill="#442580" d="M241.657,113.753c-0.674,0-1.157,0.483-1.157,1.13c0,0.593,0.376,1.023,0.901,1.023
		c0.699,0,1.224-0.58,1.224-1.197C242.625,114.103,242.275,113.753,241.657,113.753z M242.505,116.821
		c-0.727,0.095-1.413,0.148-2.072,0.148c0.161,0.941,0.229,2.045,0.229,3.351c0,1.063-0.054,2.233-0.161,3.472h2.017
		c-0.093-1.226-0.133-2.449-0.133-3.674C242.384,118.825,242.424,117.722,242.505,116.821z"/>
	<path fill="#442580" d="M248.103,122.176c-0.498,0.35-1.022,0.525-1.562,0.525c-0.552,0-0.874-0.31-0.874-0.78
		c0-0.849,0.807-1.306,2.382-1.319C248.049,121.301,248.062,121.827,248.103,122.176z M248.209,123.025
		c0.148,0.604,0.539,0.914,1.158,0.914c0.444,0,0.86-0.067,1.278-0.216l0.027-0.793h-0.122c-0.821,0-0.848-0.646-0.848-2.086v-0.633
		c0-1.291-0.094-2.152-0.834-2.771c-0.484-0.403-1.09-0.579-1.87-0.579c-0.835,0-1.696,0.176-2.477,0.524l-0.054,1.332
		c0.699-0.35,1.386-0.51,2.031-0.51c1.011,0,1.521,0.43,1.521,1.264v0.176c-2.784,0.08-4.197,0.941-4.197,2.517
		c0,1.156,0.673,1.829,1.87,1.829C246.568,123.993,247.349,123.656,248.209,123.025z"/>
	<path fill="#442580" d="M252.677,115.206c0.472-0.053,0.928-0.146,1.413-0.322c-0.067,0.646-0.121,1.359-0.175,2.127h1.749
		l-0.31,1.237h-1.467c-0.039,1.022-0.066,1.749-0.066,2.179c0,1.588,0.215,2.207,1.358,2.207c0.202,0,0.403-0.025,0.605-0.067
		l-0.282,1.266c-0.431,0.081-0.82,0.12-1.17,0.12c-1.629,0-2.275-0.861-2.275-2.758c0-0.431,0.026-1.413,0.067-2.946h-1.156
		l0.066-0.821l1.185-0.484L252.677,115.206z"/>
	<path fill="#442580" d="M260.469,116.903c0.2,0,0.431,0.053,0.672,0.146l-0.282,1.695c-0.242-0.161-0.484-0.242-0.74-0.242
		c-0.901,0-1.413,0.768-1.413,2.274c0,0.606,0.041,1.628,0.148,3.055h-2.059c0.121-1.319,0.188-2.503,0.188-3.552
		c0-1.441-0.067-2.544-0.188-3.311h0.147c0.431,0,0.835-0.054,1.211-0.122l0.377,1.575
		C259.136,117.413,259.782,116.903,260.469,116.903z"/>
	<path fill="#442580" d="M263.038,113.753c-0.673,0-1.157,0.483-1.157,1.13c0,0.593,0.377,1.023,0.901,1.023
		c0.7,0,1.225-0.58,1.225-1.197C264.007,114.103,263.657,113.753,263.038,113.753z M263.886,116.821
		c-0.727,0.095-1.413,0.148-2.072,0.148c0.16,0.941,0.229,2.045,0.229,3.351c0,1.063-0.054,2.233-0.161,3.472h2.019
		c-0.094-1.226-0.135-2.449-0.135-3.674C263.765,118.825,263.806,117.722,263.886,116.821z"/>
	<path fill="#442580" d="M267.101,120.723c0.015,1.238,0.742,1.897,2.073,1.897c0.578,0,1.251-0.147,2.031-0.471l-0.093,1.332
		c-0.782,0.362-1.575,0.538-2.369,0.538c-2.14,0-3.418-1.318-3.418-3.512c0-2.288,1.318-3.714,3.311-3.714
		c1.883,0,3.014,1.265,3.014,3.513c0,0.133,0,0.268-0.014,0.416H267.101z M269.968,119.592c0-1.021-0.497-1.6-1.346-1.6
		c-0.888,0-1.453,0.604-1.507,1.682h2.853V119.592z"/>
</g>
</svg>
